<svg width="47" height="1" viewBox="0 0 47 1" fill="none" xmlns="http://www.w3.org/2000/svg">
<g opacity="0.24">
<line x1="1.25" y1="0.5" x2="2.25" y2="0.5" stroke="black"/>
<line x1="3.25" y1="0.5" x2="4.25" y2="0.5" stroke="black"/>
<line x1="5.25" y1="0.5" x2="6.25" y2="0.5" stroke="black"/>
<line x1="7.25" y1="0.5" x2="8.25" y2="0.5" stroke="black"/>
<line x1="9.25" y1="0.5" x2="10.25" y2="0.5" stroke="black"/>
<line x1="11.25" y1="0.5" x2="12.25" y2="0.5" stroke="black"/>
<line x1="13.25" y1="0.5" x2="14.25" y2="0.5" stroke="black"/>
<line x1="15.25" y1="0.5" x2="16.25" y2="0.5" stroke="black"/>
<line x1="17.25" y1="0.5" x2="18.25" y2="0.5" stroke="black"/>
<line x1="19.25" y1="0.5" x2="20.25" y2="0.5" stroke="black"/>
<line x1="21.25" y1="0.5" x2="22.25" y2="0.5" stroke="black"/>
<line x1="23.25" y1="0.5" x2="24.25" y2="0.5" stroke="black"/>
<line x1="25.25" y1="0.5" x2="26.25" y2="0.5" stroke="black"/>
<line x1="27.25" y1="0.5" x2="28.25" y2="0.5" stroke="black"/>
<line x1="29.25" y1="0.5" x2="30.25" y2="0.5" stroke="black"/>
<line x1="31.25" y1="0.5" x2="32.25" y2="0.5" stroke="black"/>
<line x1="33.25" y1="0.5" x2="34.25" y2="0.5" stroke="black"/>
<line x1="35.25" y1="0.5" x2="36.25" y2="0.5" stroke="black"/>
<line x1="37.25" y1="0.5" x2="38.25" y2="0.5" stroke="black"/>
<line x1="39.25" y1="0.5" x2="40.25" y2="0.5" stroke="black"/>
<line x1="41.25" y1="0.5" x2="42.25" y2="0.5" stroke="black"/>
<line x1="43.25" y1="0.5" x2="44.25" y2="0.5" stroke="black"/>
<line x1="45.25" y1="0.5" x2="46.25" y2="0.5" stroke="black"/>
</g>
</svg>
